<?xml version="1.0" encoding="UTF-8"?><svg id="Layer_1" xmlns="http://www.w3.org/2000/svg" viewBox="0 0 1000 1000"><defs><style>.cls-1{fill:#fff;}.cls-2{fill:#181818;}</style></defs><rect class="cls-2" width="1000" height="1000"/><path id="Smiley" class="cls-1" d="m173.26,470.26l-99.57,57.48c-23.55-40.8-29.81-88.32-17.61-133.82,12.19-45.5,41.37-83.52,82.16-107.07h.01c40.79-23.56,88.31-29.81,133.81-17.62,45.5,12.2,83.53,41.38,107.07,82.17l-99.57,57.48c-8.2-14.2-21.43-24.36-37.27-28.6-15.83-4.24-32.37-2.07-46.57,6.13h0c-14.2,8.2-24.35,21.43-28.6,37.27-4.24,15.84-2.07,32.37,6.13,46.57Zm555.05,417.71s0,0-.01,0c-211.81,122.27-483.6,49.43-605.88-162.37l-28.74-49.78L861.94,232.3l28.74,49.78c122.27,211.79,49.43,483.6-162.36,605.88Zm87.17-496.09L255.1,715.38c100.53,119.62,275.8,153.79,415.73,73.02,139.92-80.78,197.98-249.65,144.67-396.53Zm-255.21-215.9h0c14.2-8.2,30.73-10.38,46.57-6.13,15.84,4.24,29.07,14.4,37.27,28.6l99.57-57.48c-23.55-40.79-61.58-69.97-107.07-82.17-45.5-12.19-93.02-5.94-133.81,17.61h-.01c-40.79,23.56-69.97,61.58-82.16,107.07-12.19,45.5-5.94,93.02,17.61,133.82l99.57-57.48c-8.2-14.2-10.37-30.74-6.13-46.57,4.24-15.83,14.39-29.06,28.6-37.26Z"/></svg>