<?xml version="1.0" encoding="UTF-8"?><svg id="Layer_1" xmlns="http://www.w3.org/2000/svg" viewBox="0 0 1000 632.77"><defs><style>.cls-1{fill:#fff;}.cls-2{fill:#181818;}</style></defs><rect class="cls-2" width="1000" height="632.77"/><g><g id="MIND"><path id="MIN" class="cls-1" d="m358.68,379.5l.29,203.28h-35.72l-.29-134.74-126.62,111.51h-16.84l-66.79-109.77v133h-36.01v-203.28h31.07l80.73,134.74,139.11-134.74h31.07Zm53.03,203.28h37.75v-203.28h-37.75v203.28Zm233.66-65.63l-112.09-137.65h-31.07v203.28h37.46v-137.65l112.09,137.65h31.07v-203.28h-37.46v137.65Z"/><path id="Smiley" class="cls-1" d="m745.51,457.18l-26.21,15.13c-6.2-10.74-7.85-23.25-4.64-35.23,3.21-11.98,10.89-21.99,21.63-28.19h0c10.74-6.2,23.25-7.85,35.23-4.64,11.98,3.21,21.99,10.89,28.19,21.63l-26.21,15.13c-2.16-3.74-5.64-6.41-9.81-7.53-4.17-1.12-8.52-.54-12.26,1.61h0c-3.74,2.16-6.41,5.64-7.53,9.81-1.12,4.17-.54,8.52,1.61,12.26Zm146.13,109.97s0,0,0,0c-55.76,32.19-127.32,13.01-159.51-42.75l-7.57-13.11,202.26-116.77,7.57,13.11c32.19,55.76,13.01,127.32-42.74,159.51Zm22.95-130.61l-147.54,85.17c26.47,31.49,72.61,40.49,109.45,19.22,36.84-21.27,52.12-65.73,38.09-104.4Zm-67.19-56.84h0c3.74-2.16,8.09-2.73,12.26-1.61,4.17,1.12,7.65,3.79,9.81,7.53l26.21-15.13c-6.2-10.74-16.21-18.42-28.19-21.63-11.98-3.21-24.49-1.56-35.23,4.64h0c-10.74,6.2-18.42,16.21-21.63,28.19-3.21,11.98-1.56,24.49,4.64,35.23l26.21-15.13c-2.16-3.74-2.73-8.09-1.61-12.26,1.12-4.17,3.79-7.65,7.53-9.81Z"/></g><g id="MEAL"><path id="Meal" class="cls-1" d="m734.88,284.33c-.31,4.61-.71,7.69-.7,10.77.02,7.32-.58,14.76.55,21.92,2.56,16.22,13.64,28.68,32.5,24.87,6.73-1.36,13.53-4.04,19.44-7.56,32.33-19.31,56.52-47.41,80.37-75.79.62-.74.28-3.24-.51-4.03-2.65-2.65-5.09-3.39-8.05.5-6.16,8.07-12.61,15.98-19.52,23.41-9.12,9.81-19.23,18.49-32.06,23.32-17.06,6.43-43.24,2.48-46.24-23.51-.38-3.26.47-4.65,3.17-6.29,8.95-5.44,18.09-10.72,26.39-17.06,23.76-18.14,43.66-40.19,61.72-63.86,16.21-21.24,30.93-43.46,40.27-68.75,4.11-11.13,7.89-22.38,4.51-34.57-2.54-9.16-9.96-14.46-19.21-12.53-5.44,1.14-10.95,3.09-15.77,5.84-15.43,8.8-27.61,21.48-38.85,34.95-33.17,39.74-58.69,84-77.35,132.26-1.43,3.69-2.52,7.92-5.07,10.68-9.7,10.51-19.53,20.96-30.15,30.51-4.65,4.18-11.04,6.91-17.1,8.92-8.62,2.87-14.81-2.24-12.98-11.01,1.74-8.36,4.26-16.99,8.52-24.29,9.8-16.81,20.77-32.94,31.48-49.2,1.96-2.97,2.25-4.96-.73-7.09-1.31-.94-2.49-2.04-3.9-3.2-3.77,4.22-7.26,8.14-10.79,12.09-1.09-.78-1.85-1.18-2.43-1.76-17.9-18-38.79-18.94-60.95-10.09-21.46,8.58-38.08,23.62-52.48,41.31-19.88,24.43-44.5,42.54-73.53,54.48-11.93,4.9-24.4,8.07-37.55,4.84-6.9-1.69-12.24-5.3-15.81-11.83,1.65-.83,2.79-1.5,4.01-1.99,20.23-8.08,38.9-18.96,56.41-31.82,11.34-8.33,21.78-17.63,28.91-30.07,9.07-15.81,2.18-32.97-14.8-35.22-5.89-.78-12.45.21-18.19,2.01-29.31,9.22-52.32,27.49-70.57,51.75-10.37,13.8-22.23,25.65-37.23,34.22-8.75,4.99-17.88,8.95-28.14,9.46-10.84.54-16.24-4.89-13.58-15.19,1.66-6.44,4.95-12.71,8.6-18.34,18.21-28.12,37.04-55.83,55.12-84.03,11.25-17.55,21.18-35.89,25.49-56.64,5.32-25.61-11.41-44.2-34.41-42.82-12.16.73-22.99,5.35-33.22,11.46-19.63,11.72-36.34,27.02-52.04,43.47-1.92,2.01-3.29,4.56-4.92,6.85-.63-.51-1.27-1.03-1.9-1.54.69-2.33,1.73-4.62,2.02-7,1.12-9.03,2.89-18.11,2.74-27.15-.17-10.48-6.46-17.98-15.67-22.71-12.62-6.49-25.54-5.2-38.32-.59-18.06,6.53-32.9,18.12-46.88,30.85-23.91,21.78-44,46.9-62.95,72.98-1.76,2.42-3.57,4.81-5.35,7.21-.15-2.25.47-3.96,1.11-5.65,7.75-20.57,14.07-41.24,9.83-63.79-4.78-25.44-27.89-45.49-53.79-46.21-27.97-.78-51.36,10.83-73.23,26.61-.91.66-1.49,3.46-.89,4.27,8.7,11.61,17.57,23.09,26.6,34.43.67.84,3.2.98,4.41.44,1.75-.78,3.05-2.54,4.62-3.77,11.76-9.17,24.62-15.77,39.69-17.57,14.35-1.71,25.32,4.39,29.35,18.15,2.01,6.86,2.5,14.48,2.14,21.67-1.03,20.68-7.95,39.76-17.85,57.75-21.05,38.23-42.27,76.37-63.43,114.54q-4.97,8.96,4.67,12.74c.28.11.65-.03.99-.05.24-.22.56-.4.72-.67,2.46-4.35,4.97-8.67,7.32-13.08,17.25-32.37,35.25-64.22,57.96-93.26,21.2-27.1,42.6-53.95,68.72-76.57,12.65-10.95,25.98-21,42.64-25.18,14.57-3.66,30.81,1.85,29.09,22.42-.47,5.6-1.36,11.27-2.94,16.65-6.01,20.44-15.72,39.32-26.86,57.29-21.15,34.12-43.12,67.72-64.74,101.55-1.02,1.59-1.87,3.28-3.38,5.95,4.4-.15,7.15,4.66,10.9-.63,21.12-29.78,42.43-59.42,63.79-89.03,11.78-16.33,22.96-33.21,35.92-48.57,17.12-20.28,36.35-38.69,58.84-53.11,7.2-4.61,15.28-8.3,23.45-10.82,15.84-4.89,27.32,3.63,27.95,20.11.18,4.77-.38,9.71-1.51,14.36-5.2,21.33-16.03,40.14-27.43,58.56-11.39,18.41-23.86,36.15-35.17,54.61-7.12,11.63-11.32,24.46-10.29,38.51.73,9.95,6.25,16.37,15.7,18.77,10.09,2.56,19.55.66,28.73-3.4,14.69-6.49,25.91-17.39,36.3-29.27,1.55-1.78,3.14-3.53,4.71-5.29,1.06,2.72,1,4.86,1.07,6.99.59,18.41,10.94,30.74,28.81,34.59,13.5,2.91,26.21-.38,38.57-5.18,25.41-9.87,46.63-26.22,66.75-44.15,1.27-1.13,2.56-2.23,3.84-3.34.6,2.22.13,3.76-.09,5.34-.96,6.89-2.63,13.8-2.6,20.7.06,11.98,8.08,21.23,19.34,23.52,8.26,1.68,15.89-1.07,23.26-4.22,16.04-6.86,29.21-17.85,41.68-29.77,1.75-1.67,3.46-3.38,6.21-6.07-1.18,6.09-2.15,10.6-2.91,15.14-3.3,19.92,12.64,26.43,25.6,24.53,12.51-1.83,22.3-8.93,30.65-17.64,10.13-10.57,19.35-22.02,28.97-33.08.91-1.05,1.88-2.05,3.88-4.23Zm48.22-90.34c11.42-22.54,24.82-43.78,43-61.6,7.03-6.9,14.41-13.49,24.49-15.69,9.38-2.05,15.33,2.83,15.1,12.53-.23,9.73-3.79,18.52-8.34,26.93-13.62,25.13-31.91,45.97-56.97,60.14-6.71,3.79-14.4,5.94-21.77,8.42-2.52.85-5.47.41-8.22.57-.39-.52-.77-1.04-1.16-1.56,4.61-9.93,8.94-19.99,13.88-29.75Zm-328.26,74.77c-.58-.66-1.17-1.32-1.75-1.97,1.28-3.81,1.98-7.94,3.93-11.36,10.01-17.57,24.91-28.27,45.28-30.27,7.59-.75,13.34,2.59,15.2,7.98,2.31,6.69.55,13.37-4.82,17.11-6.94,4.84-14.81,9.01-22.89,11.41-11.35,3.36-23.27,4.83-34.94,7.1Zm221.33-16.02c-10.13,17.13-23.33,31.17-40.93,40.74-11.43,6.22-23.53,8.33-36.16,4.42-10.03-3.1-15.26-12.3-13.11-22.7,3.67-17.76,15.14-28.93,31.42-35.32,6.09-2.39,12.87-3.04,16.4-3.83,16.75.54,29.28,4.59,40.97,11.48,2.27,1.34,2.91,2.67,1.41,5.2Z"/><path id="Fork" class="cls-1" d="m697.89,151.21c11.89,11.52,30.2,14.07,44.89,5.76l.09.13,2.73-1.87,2.99-2.05,58.45-40.1c1.74-1.2,2.19-3.58.99-5.32l-3.12-4.55c-1.2-1.74-3.58-2.19-5.32-.99l-55.3,37.93c-1.74,1.2-4.13.75-5.32-.99-1.2-1.74-.75-4.13.99-5.32l55.3-37.93c1.74-1.2,2.19-3.58.99-5.32l-3.12-4.55c-1.2-1.74-3.58-2.19-5.32-.99l-55.3,37.93c-1.74,1.2-4.13.75-5.32-.99h0c-1.2-1.74-.75-4.13.99-5.32l55.3-37.93c1.74-1.2,2.19-3.58.99-5.32l-3.12-4.55c-1.2-1.74-3.58-2.19-5.32-.99l-55.3,37.93c-1.74,1.2-4.13.75-5.32-.99-1.2-1.74-.75-4.13.99-5.32l55.3-37.93c1.74-1.2,2.19-3.58.99-5.32l-3.12-4.55c-1.2-1.74-3.58-2.19-5.32-.99l-58.45,40.1-2.99,2.05-2.73,1.87.09.13c-10.46,8.6-15.23,21.88-13.37,34.66-39.99,14.35-94.02,21.2-149.88-9.15-45.89-24.93-67.01,10.28-49.03,38.88,14.6,23.23,111.97,39.5,210.04-8.01Z"/></g></g></svg>